<svg id="BACKGROUND_2" xmlns="http://www.w3.org/2000/svg" xmlns:xlink="http://www.w3.org/1999/xlink" viewBox="0 0 750 500"><style>.st0{fill:#e9e6e1}.st2{fill:#ffa73b}.st3{fill:#0c2e3a}.st4{fill:#78001b}.st5{fill:#f5340b}.st6{fill:#ff823b}.st7{fill:#018790}.st8{fill:#e3651d}.st9{fill:#00a6a6}.st10{fill:#1dcdc3}.st11{fill:none}.st12{fill:#ffd497}.st13{fill:#ff7c4e}.st14{fill:#f54132}</style><path class="st0" d="M0 0h750v500H0z"/><path class="st0" d="M0 0h750v500H0z"/><defs><path id="SVGID_1_" d="M0 0h750v500H0z"/></defs><clipPath id="SVGID_2_"><use xlink:href="#SVGID_1_" overflow="visible"/></clipPath><g clip-path="url(#SVGID_2_)"><path class="st2" d="M850.3 340.6v57.3l-49.6-28.6v-.1z"/><path class="st3" d="M800.7 369.3v57.2l-49.5-28.6z"/><path class="st4" d="M800.7 369.2v.1l-49.5 28.6h-.1v-57.3z"/><path class="st2" d="M800.7 254.7V312l-49.6-28.6v-.1z"/><path class="st5" d="M800.7 312l-49.5 28.6h-.1v-57.2z"/><path class="st5" d="M800.7 312v57.2l-49.5-28.6z"/><path class="st6" d="M850.3 340.6l-49.6 28.6V312z"/><g><path class="st7" d="M800.7 426.5v57.3l-49.6-28.6v-.1z"/><path class="st7" d="M800.7 483.8l-49.5 28.6h-.1v-57.2z"/><path class="st8" d="M800.7 483.8V541l-49.5-28.6z"/><path class="st2" d="M850.3 455.1v.1l-49.6 28.6v-57.3z"/><g><path class="st2" d="M850.3 340.6v57.3l-49.6-28.6v-.1z"/></g><g><path class="st9" d="M800.7 426.5l-49.6 28.6v-57.2h.1z"/><path class="st3" d="M800.7 369.3v57.2l-49.5-28.6z"/><path class="st2" d="M800.7 369.2v.1l-49.5 28.6h-.1v-57.3z"/></g></g><g><path class="st4" d="M751.1 340.6v57.3l-49.6-28.6v-.1z"/><path class="st4" d="M751.1 397.9l-49.5 28.6h-.1v-57.2zM800.7 369.2v.1l-49.5 28.6h-.1v-57.3z"/><g><path class="st4" d="M701.5 369.3v57.2L652 397.9z"/><path class="st5" d="M701.5 369.2v.1L652 397.9h-.1v-57.3z"/></g><g><path class="st10" d="M701.5 254.7V312l-49.6-28.6v-.1z"/><path class="st3" d="M701.5 312L652 340.6h-.1v-57.2z"/><path class="st3" d="M701.5 312v57.2L652 340.6z"/><path class="st7" d="M751.1 340.6l-49.6 28.6V312h.1zM751.1 283.4v57.2L701.6 312zM733.5 165.7v16.6l-14.4-8.3z"/><path class="st10" d="M751.1 226v.1l-49.5 28.6h-.1v-57.3z"/></g></g><g><path class="st4" d="M701.5 426.5v57.3l-49.6-28.6v-.1z"/><path class="st4" d="M701.5 483.8L652 512.4h-.1v-57.2z"/><path class="st9" d="M701.5 483.8V541L652 512.4zM751.1 512.4L701.5 541v-57.2h.1z"/><path class="st3" d="M751.1 455.2v57.2l-49.5-28.6z"/><path class="st3" d="M751.1 455.1v.1l-49.5 28.6h-.1v-57.3z"/><g><path class="st5" d="M751.1 340.6v57.3l-49.6-28.6v-.1z"/><path class="st5" d="M751.1 397.9l-49.5 28.6h-.1v-57.2z"/><path class="st9" d="M751.1 397.9v57.2l-49.5-28.6z"/><path class="st6" d="M800.7 426.5l-49.6 28.6v-57.2h.1z"/><path class="st2" d="M800.7 369.2v.1l-49.5 28.6h-.1v-57.3z"/></g><g><path class="st5" d="M701.5 426.5l-49.6 28.6v-57.2h.1zM701.5 369.3v57.2L652 397.9z"/><path class="st11" d="M701.5 369.2v.1L652 397.9h-.1v-57.3z"/></g></g><g><path class="st5" d="M651.9 340.6v57.3l-49.6-28.6v-.1z"/><path class="st8" d="M651.9 397.9l-49.5 28.6h-.1v-57.2z"/><path class="st2" d="M701.5 369.2v.1L652 397.9h-.1v-57.3z"/><g><path class="st12" d="M602.3 254.7V312l-49.6-28.6v-.1z"/><path class="st6" d="M651.9 340.6l-49.6 28.6V312h.1zM568.5 340.6L545.4 354v-26.7z"/><path class="st12" d="M568.1 259.1l-15.8 9.1V250z"/><path class="st6" d="M651.9 283.4v57.2L602.4 312z"/><path class="st2" d="M651.9 283.3v.1L602.4 312h-.1v-57.3z"/></g></g><g><path class="st13" d="M602.3 426.5v57.3l-49.6-28.6v-.1z"/><path class="st14" d="M651.9 512.4L602.3 541v-57.2h.1zM552.7 512.4L503.2 541v-57.2zM651.9 455.2v57.2l-49.5-28.6z"/><path class="st14" d="M651.9 455.1v.1l-49.5 28.6h-.1v-57.3z"/><g><path class="st2" d="M651.9 340.6v57.3l-49.6-28.6v-.1z"/><path class="st2" d="M651.9 397.9l-49.5 28.6h-.1v-57.2z"/><path class="st8" d="M651.9 397.9v57.2l-49.5-28.6z"/><path class="st4" d="M701.5 426.5l-49.6 28.6v-57.2h.1z"/><path class="st2" d="M701.5 369.2v.1L652 397.9h-.1v-57.3z"/></g></g><g><path class="st2" d="M-148.8 84.2V26.9l49.6 28.6v.1z"/><path class="st3" d="M-99.2 55.5V-1.7h.1l49.5 28.6z"/><path class="st4" d="M-99.2 55.6v-.1l49.6-28.6v57.3z"/><path class="st2" d="M-99.2 170.1v-57.3l49.6 28.6v.1z"/><path class="st5" d="M-99.2 112.8l49.5-28.6h.1v57.2z"/><path class="st5" d="M-99.2 112.8V55.6l49.5 28.6z"/><path class="st6" d="M-148.7 84.2l49.5-28.6v57.2z"/><g><path class="st7" d="M-99.2-1.7V-59l49.6 28.6v.1z"/><path class="st7" d="M-99.2-59l49.5-28.6h.1v57.2z"/><path class="st8" d="M-99.2-59v-57.2l49.5 28.6z"/><path class="st2" d="M-148.8-30.3v-.1L-99.2-59v57.3z"/><g><path class="st2" d="M-148.8 84.2V26.9l49.6 28.6v.1z"/></g><g><path class="st9" d="M-99.1-1.7l49.5-28.6v57.2z"/><path class="st3" d="M-99.2 55.5V-1.7h.1l49.5 28.6z"/><path class="st2" d="M-99.2 55.6v-.1l49.6-28.6v57.3z"/></g></g><g><path class="st4" d="M-49.6 84.2V26.9L0 55.5v.1z"/><path class="st4" d="M-49.6 26.9L-.1-1.7H0v57.2zM-99.2 55.6v-.1l49.6-28.6v57.3z"/><g><path class="st4" d="M0 55.5V-1.7l49.6 28.6z"/><path class="st5" d="M0 55.6v-.1l49.6-28.6v57.3z"/></g><g><path class="st10" d="M0 170.1v-57.3l49.6 28.6v.1z"/><path class="st3" d="M0 112.8l49.5-28.6h.1v57.2zM16.5 174.8l16.6-9.6v19.2z"/><path class="st3" d="M0 112.8V55.6l49.5 28.6z"/><path class="st7" d="M-49.5 84.2L0 55.6v57.2z"/><path class="st7" d="M-49.6 141.4V84.2h.1L0 112.8z"/><path class="st10" d="M-49.6 198.8v-.1L0 170.1v57.3z"/></g></g><g><path class="st4" d="M0-1.7V-59l49.6 28.6v.1z"/><path class="st4" d="M0-59l49.5-28.6h.1v57.2z"/><path class="st9" d="M0-59v-57.2l49.5 28.6zM-49.5-87.6L0-116.2V-59z"/><path class="st3" d="M-49.6-30.4v-57.2h.1L0-59z"/><path class="st3" d="M-49.6-30.3v-.1L0-59v57.3z"/><g><path class="st5" d="M-49.6 84.2V26.9L0 55.5v.1z"/><path class="st5" d="M-49.6 26.9L-.1-1.7H0v57.2z"/><path class="st9" d="M-49.6 26.9v-57.2L-.1-1.7z"/><path class="st6" d="M-99.1-1.7l49.5-28.6v57.2z"/><path class="st2" d="M-99.2 55.6v-.1l49.6-28.6v57.3z"/></g><g><path class="st5" d="M0-1.7l49.6-28.6v57.2z"/><path class="st5" d="M0 55.5V-1.7l49.6 28.6z"/><path class="st11" d="M0 55.6v-.1l49.6-28.6v57.3z"/></g></g><g><path class="st5" d="M49.6 84.2V26.9l49.6 28.6v.1z"/><path class="st8" d="M49.6 26.9L99.1-1.7h.1v57.2z"/><path class="st2" d="M0 55.6v-.1l49.6-28.6v57.3zM99.2 55.5V-1.7l49.6 28.6z"/><g><path class="st12" d="M163.4 38.5V15.3l20.1 11.6z"/></g><g><path class="st12" d="M99.2 170.1v-57.3l49.6 28.6v.1z"/><path class="st6" d="M49.6 84.2l49.6-28.6v57.2z"/><path class="st6" d="M49.6 141.4V84.2l49.6 28.6z"/><path class="st2" d="M49.6 141.5v-.1l49.6-28.6v57.3z"/></g></g><g><path class="st13" d="M99.2-1.7V-59l49.6 28.6v.1z"/><path class="st14" d="M49.6-87.6l49.6-28.6V-59z"/><path class="st14" d="M49.6-30.4v-57.2L99.2-59z"/><path class="st14" d="M49.6-30.3v-.1L99.2-59v57.3z"/><g><path class="st2" d="M49.6 84.2V26.9l49.6 28.6v.1z"/><path class="st2" d="M49.6 26.9L99.1-1.7h.1v57.2z"/><path class="st8" d="M49.6 26.9v-57.2L99.1-1.7z"/><path class="st4" d="M0-1.7l49.6-28.6v57.2z"/><path class="st2" d="M0 55.6v-.1l49.6-28.6v57.3z"/></g></g></g></g></svg>